<svg width="361" height="478" viewBox="0 0 361 478" fill="none" xmlns="http://www.w3.org/2000/svg">
<path fill-rule="evenodd" clip-rule="evenodd" d="M20.8355 343.828C20.8355 336.972 19.9873 331.058 18.2909 326.085C16.3825 321.113 13.9751 315.671 11.2891 313.335H77.7659C123.639 313.335 148.586 359.595 148.586 398.087C148.586 428.766 135.737 476.166 77.8762 477.178H11.3994C14.0853 474.617 16.3825 470.888 18.2909 465.99C19.9873 461.018 20.8355 455.217 20.8355 448.587V343.828ZM102.121 416.352V412.306H78.23L100.222 402.971L98.6404 399.246L77.077 408.399L93.6415 391.834L90.7801 388.973L73.8865 405.867L82.8363 383.715L79.0843 382.199L70.3088 403.919V380.494H66.2623V404.384L56.9273 382.393L53.2024 383.974L62.3557 405.537L45.7912 388.973L42.9298 391.834L59.8232 408.728L37.6717 399.778L36.1558 403.53L57.8763 412.306H34.4503V416.352H58.3403L36.3492 425.687L37.9304 429.412L59.4951 420.258L42.9298 436.823L45.7912 439.685L62.6838 422.792L53.7345 444.942L57.4864 446.458L66.2623 424.737V448.164H70.3088V424.274L79.6435 446.265L83.3684 444.684L74.2148 423.119L90.7802 439.685L93.6415 436.823L76.7487 419.93L98.8989 428.88L100.415 425.128L78.6942 416.352H102.121Z" fill="#03BF56"/>
<path d="M340.852 399.848C332.444 408.412 332.597 409.558 314.814 420.331C279.656 441.631 211.083 450.285 209.15 413.128C207.459 380.622 272.371 396.507 312.88 385.857C280.656 385.707 184.193 310.903 223.608 265.942C245.727 240.71 331.847 272.716 359.774 321.877L359.643 228.231L156.422 228.148C150.562 308.424 170.966 391.297 155.942 433.262C149.749 450.559 136.329 468.036 126.306 477.178H359.982L359.974 371.728C355.634 381.796 349.261 391.169 340.852 399.848Z" fill="#03BF56"/>
<path d="M157.136 70.4956C157.136 58.5529 155.411 48.3354 151.961 39.8428C148.378 30.9522 144.096 24.4284 139.054 20.0495V239.944C139.054 281.379 118.008 302.096 75.9178 302.096C65.5591 302.096 55.7904 301.047 46.6117 298.949C37.1709 296.064 28.9756 292.459 22.0261 288.131L11.6018 234.24C15.2732 236.338 21.3049 239.419 29.6968 243.484C36.6464 246.893 43.9893 250.171 51.7256 253.318C59.1996 256.334 66.7392 258.891 74.3444 260.989C82.0806 263.087 88.5713 264.136 93.8162 264.136C104.437 264.136 110.797 261.382 112.895 255.875C113.681 252.99 112.96 249.188 110.731 244.467C108.371 240.271 104.306 236.666 98.5366 233.65C90.9315 228.929 83.523 226.569 76.3112 226.569V82.202C76.3112 70.0075 74.6066 59.7143 71.1974 51.3224C67.9465 42.4801 63.922 36.3458 59.1237 32.9195L1.60459 42.4302L0 33.1916L220.038 0L220.034 7.99586C220.034 62.2524 215.183 124.181 220.034 146.928C224.884 169.676 233.151 172.732 242.457 172.764C253.816 172.804 263.087 157.831 267.804 146.928C284.951 107.293 279.711 39.8578 249.691 19.9385L330.702 7.99586V154.691C330.702 167.032 332.427 177.249 335.877 185.344C338.929 193.836 355.052 212.348 360.36 216.992L202.916 216.992C188.85 216.992 177.77 213.21 169.675 205.646C161.316 198.215 157.136 183.287 157.136 160.861V70.4956Z" fill="#03BF56"/>
</svg>
