<svg width="863" height="761" viewBox="0 0 863 761" fill="none" xmlns="http://www.w3.org/2000/svg">
<path d="M3.17775 533.767C11.9879 485.603 38.0534 444.889 73.8578 416.883C91.4321 360.185 133.775 316.284 186.481 295.261C209.156 260.518 242.521 234.097 281.106 219.821C304.294 192.801 334.66 172.597 368.659 161.693C389.789 137.161 416.846 118.274 447.164 106.898C472.008 79.791 504.308 60.1316 540.14 50.6687C582.742 11.6365 642.375 -7.85521 703.673 2.95668L704.898 3.17663C808.882 22.1974 878.147 121.64 859.759 225.895L859.539 227.121C845.69 302.829 789.21 360.13 719.28 378.6C701.095 395.261 679.808 408.361 656.612 417.064C634.006 441.729 605.228 460.228 573.232 470.489C551.911 495.244 524.552 514.25 493.899 525.592C473.596 549.251 447.789 567.684 418.858 579.224C407.218 597.058 392.76 612.697 376.227 625.63C348.071 716.467 256.342 774.462 160.269 758.143L159.043 757.93C54.3788 739.469 -15.5032 639.656 2.95779 534.992L3.17775 533.767ZM544.633 49.5403C569.455 43.6238 595.867 42.5741 622.596 47.2886L623.82 47.5085C727.804 66.5292 797.07 165.972 778.681 270.227L778.461 271.453C770.923 312.663 750.753 348.419 722.659 375.428C790.353 355.982 844.574 299.552 857.632 225.52C875.886 122.03 806.788 23.337 703.298 5.08303C644.129 -5.35341 586.529 12.7664 544.633 49.5403ZM506.865 94.8386C520.384 94.3074 534.166 95.2026 548.034 97.6486L549.258 97.8686C653.243 116.889 722.508 216.332 704.119 320.587L703.899 321.813C699.891 343.727 692.309 364.099 681.865 382.433C694.269 381.685 706.431 379.723 718.211 376.647C747.806 349.379 769.025 312.542 776.555 269.852C794.808 166.362 725.711 67.6688 622.221 49.4149C594.376 44.5037 566.88 45.9193 541.203 52.6233C527.905 64.8758 516.298 79.0593 506.865 94.8386ZM659.782 413.518C679.929 405.446 698.538 393.99 714.786 379.728C703.662 382.38 692.218 384.055 680.57 384.67C674.511 394.979 667.538 404.625 659.782 413.518ZM482.861 159.417C482.785 159.846 482.711 160.275 482.638 160.703C573.915 187.993 632.633 279.25 617.327 375.257C623.793 377.12 630.42 378.66 637.195 379.855C651.384 382.357 665.482 383.215 679.296 382.57C690.176 363.794 698.005 342.824 701.993 320.212C720.247 216.722 651.149 118.029 547.659 99.775C533.47 97.2722 519.371 96.4152 505.557 97.0602C494.677 115.836 486.849 136.806 482.861 159.417ZM601.565 426.72C620.214 425.518 638.31 421.57 655.37 415.222C663.849 405.92 671.443 395.739 677.989 384.788C664.869 385.304 651.5 384.479 638.046 382.193L636.82 381.981C630.054 380.788 623.434 379.254 616.974 377.402C616.914 377.751 616.855 378.101 616.793 378.451L616.573 379.676C613.528 396.32 608.42 412.072 601.565 426.72ZM575.888 467.335C604.865 457.451 631.046 440.696 652.139 418.678C635.692 424.39 618.343 427.91 600.504 428.947C593.79 442.825 585.495 455.684 575.888 467.335ZM517.011 308.875C534.954 342.015 543.323 380.61 539.125 420.393C544.676 421.899 550.343 423.168 556.118 424.187C570.612 426.743 585.012 427.586 599.11 426.861C606.308 411.726 611.614 395.382 614.667 378.075C614.742 377.647 614.816 377.219 614.888 376.791C574.818 364.811 541.024 340.501 517.011 308.875ZM482.287 162.851C467.325 257.585 525.228 347.586 615.239 374.642C630.202 279.909 572.299 189.908 482.287 162.851ZM524.195 477.237C540.646 476.422 556.687 473.472 571.992 468.618C582.189 456.701 590.973 443.447 598.039 429.075C584.557 429.684 570.808 428.876 556.968 426.525L555.742 426.313C550.015 425.303 544.392 424.05 538.882 422.566C538.445 426.308 537.897 430.059 537.234 433.817L537.014 435.043C534.302 449.865 529.955 463.98 524.195 477.237ZM496.751 522.193C524.516 511.276 549.407 493.949 569.284 471.711C554.485 476.108 539.034 478.753 523.217 479.446C516.229 494.988 507.29 509.323 496.751 522.193ZM327.222 254.109C324.877 267.401 323.977 280.613 324.403 293.586C397.247 320.442 446.811 388.987 449.928 466.138C460.044 469.78 470.607 472.615 481.556 474.547C495.107 476.937 508.577 477.826 521.794 477.34C527.858 463.592 532.381 448.901 535.107 433.442C535.782 429.615 536.337 425.794 536.775 421.984C447.083 396.723 387.929 310.022 397.766 216.801C392.215 215.294 386.547 214.024 380.773 213.005C367.222 210.615 353.752 209.726 340.535 210.213C334.471 223.96 329.948 238.651 327.222 254.109ZM399.876 217.385C390.352 309.302 448.639 394.737 537.014 419.807C546.538 327.89 488.252 242.455 399.876 217.385ZM450.008 468.463C450.37 481.305 449.447 494.375 447.128 507.521L446.908 508.746C445.263 517.737 443.017 526.468 440.219 534.905C458.364 533.683 475.981 529.862 492.624 523.76C503.888 510.555 513.422 495.717 520.807 479.537C508.182 479.931 495.333 479.081 482.407 476.885L481.181 476.673C470.401 474.772 459.991 472.007 450.008 468.463ZM420.866 576.075C447.152 565.102 470.725 548.334 489.721 527.083C473.694 532.596 456.818 536.029 439.471 537.116C434.691 550.964 428.415 564 420.866 576.075ZM401.783 203.749C401.108 207.577 400.554 211.398 400.115 215.209C441.487 226.86 476.358 251.586 500.961 283.992C481.481 248.017 473.284 205.612 480.199 162.237C473.734 160.374 467.107 158.833 460.332 157.638C445.838 155.082 431.437 154.24 417.338 154.964C410.141 170.1 404.836 186.443 401.783 203.749ZM451.639 105.281C468.396 99.462 486.09 95.9206 504.283 94.9594C513.249 79.7049 524.213 65.902 536.758 53.8424C504.257 63.1785 474.864 81.0391 451.639 105.281ZM239.895 311.973C235.672 335.913 236.127 359.596 240.598 382.087C313.134 400.739 366.501 459.29 381 529.596C385.343 530.681 389.754 531.62 394.229 532.41C408.954 535.007 423.582 535.833 437.895 535.046C440.917 526.071 443.306 516.757 445.002 507.146C447.346 493.855 448.246 480.644 447.821 467.672C374.977 440.816 325.413 372.268 322.295 295.117C312.179 291.475 301.616 288.64 290.667 286.708C275.942 284.111 261.315 283.285 247.002 284.072C243.98 293.047 241.59 302.362 239.895 311.973ZM381.466 531.936C384.916 549.787 385.868 568.369 383.995 587.229C395.487 584.995 406.671 581.713 417.423 577.469C425.454 565.067 432.109 551.6 437.139 537.247C423.341 537.943 409.258 537.157 395.08 534.748L393.854 534.536C389.668 533.798 385.537 532.929 381.466 531.936ZM324.493 295.924C327.908 371.547 376.445 438.665 447.73 465.331C444.315 389.708 395.779 322.59 324.493 295.924ZM418.408 152.753C432.289 152.126 446.453 152.998 460.707 155.512L461.932 155.732C468.272 156.892 474.482 158.352 480.552 160.092C480.612 159.742 480.673 159.392 480.734 159.042L480.954 157.818C484.963 135.904 492.543 115.532 502.987 97.197C484.064 98.3388 465.702 102.304 448.405 108.74C436.517 121.783 426.37 136.557 418.408 152.753ZM377.31 622.011C391.874 610.236 404.736 596.301 415.361 580.581C405.162 584.42 394.594 587.408 383.757 589.475C383.301 593.587 382.711 597.712 381.982 601.845L381.762 603.07C380.582 609.522 379.091 615.839 377.31 622.011ZM70.2301 441.043C51.9765 544.533 121.074 643.226 224.564 661.48C279.662 671.198 333.399 656.155 374.363 624.347C376.632 616.933 378.475 609.3 379.856 601.47C380.538 597.6 381.097 593.737 381.538 589.885C360.278 593.681 338.018 593.937 315.521 590.115L314.295 589.903C214.516 572.304 146.348 480.769 156.197 381.58C126.627 387.327 99.0957 400.016 75.7231 418.165C73.4536 425.579 71.6113 433.212 70.2301 441.043ZM158.409 381.164C148.32 479.481 215.8 570.338 314.67 587.777C337.547 591.812 360.19 591.576 381.781 587.646C383.753 568.433 382.76 549.506 379.152 531.355C306.616 512.703 253.248 454.152 238.749 383.847C234.407 382.763 229.997 381.822 225.521 381.032C202.644 376.997 180.001 377.234 158.409 381.164ZM5.08415 535.367C-13.1697 638.857 55.928 737.55 159.418 755.804C253.81 772.453 344.209 716.435 373.226 627.932C332.426 658.58 279.612 673.025 225.415 663.819L224.189 663.606C119.525 645.145 49.643 545.332 68.1038 440.668L68.3237 439.443C69.5038 432.992 70.994 426.673 72.7753 420.502C38.3203 448.359 13.3849 488.306 5.08415 535.367ZM241.081 384.444C255.655 453.17 307.822 510.363 378.667 528.999C364.093 460.272 311.927 403.08 241.081 384.444ZM372.599 160.478C386.548 156.333 401.075 153.746 415.943 152.881C423.444 137.376 432.919 123.143 443.992 110.445C416.685 121.387 392.204 138.544 372.599 160.478ZM341.52 208.018C354.545 207.612 367.807 208.526 381.148 210.879L382.373 211.099C387.677 212.069 392.891 213.249 398.007 214.628C398.445 210.885 398.994 207.133 399.657 203.374L399.877 202.15C402.921 185.506 408.029 169.753 414.884 155.106C399.415 156.103 384.327 158.99 369.894 163.568C358.546 176.83 348.947 191.746 341.52 208.018ZM285.282 218.33C302.409 212.439 320.506 208.924 339.109 208.109C346.189 192.361 355.275 177.853 365.997 164.851C334.94 175.446 307.094 193.931 285.282 218.33ZM247.758 281.868C261.954 281.153 276.451 282.008 291.042 284.582L292.267 284.802C302.611 286.694 312.611 289.382 322.215 292.792C321.853 279.95 322.776 266.88 325.095 253.734L325.315 252.51C328.026 237.688 332.373 223.573 338.133 210.315C318.805 211.273 300.043 215.178 282.377 221.656C267.497 239.1 255.633 259.397 247.758 281.868ZM189.975 293.907C207.535 287.296 226.191 283.205 245.425 282C252.951 260.2 264.182 240.408 278.256 223.22C242.565 237.253 211.624 261.875 189.975 293.907ZM160.336 367.339C159.653 371.209 159.093 375.072 158.652 378.924C180.299 375.059 202.982 374.864 225.896 378.906L227.121 379.126C230.888 379.815 234.608 380.611 238.281 381.507C233.944 359.06 233.561 335.455 237.769 311.597L237.988 310.373C239.633 301.382 241.879 292.651 244.677 284.214C224.939 285.544 205.827 289.945 187.915 297.016C174.484 317.758 164.898 341.475 160.336 367.339ZM76.8593 414.579C100.132 397.097 127.314 384.889 156.432 379.334C156.889 375.221 157.481 371.097 158.209 366.964L158.429 365.74C162.934 341.115 171.95 318.439 184.47 298.412C134.572 319.242 94.4439 360.945 76.8593 414.579Z" fill="#03BF56"/>
</svg>
