<svg width="409" height="97" viewBox="0 0 409 97" fill="none" xmlns="http://www.w3.org/2000/svg">
<path d="M335.228 0.334321C334.54 0.391515 334.029 0.9956 334.086 1.68358C334.143 2.37156 334.747 2.88292 335.435 2.82573L335.332 1.58002L335.228 0.334321ZM402.21 73.8083L403.314 74.3956V74.3956L402.21 73.8083ZM5.03613 96.8033L14.2324 85.6785L-0.000142574 83.2767L5.03613 96.8033ZM335.332 1.58002L335.435 2.82573C363.246 0.513745 383.619 10.7686 395.046 25.2207C406.498 39.7044 408.994 58.402 401.107 73.221L402.21 73.8083L403.314 74.3956C411.736 58.571 408.979 38.8113 397.007 23.6702C385.01 8.49742 363.789 -2.04005 335.228 0.334321L335.332 1.58002ZM402.21 73.8083L401.107 73.221C396.789 81.3328 388.037 86.6403 375.601 89.7187C363.177 92.7943 347.286 93.5892 329.037 92.8459C292.541 91.3595 246.97 83.743 201.549 76.2917C156.184 68.8495 110.965 61.5712 75.3393 60.8247C57.5301 60.4516 42.0139 61.7063 30.0331 65.4427C18.041 69.1825 9.40929 75.4733 5.73622 85.2796L6.9068 85.718L8.07738 86.1565C11.3773 77.3464 19.1893 71.4432 30.7774 67.8293C42.3768 64.2119 57.5772 62.9531 75.2869 63.3242C110.699 64.0662 155.726 71.3078 201.144 78.7587C246.506 86.2003 292.252 93.8498 328.935 95.3438C347.275 96.0908 363.44 95.3046 376.202 92.1454C388.952 88.9891 398.517 83.4081 403.314 74.3956L402.21 73.8083Z" fill="#009559"/>
</svg>
