<svg width="103" height="112" viewBox="0 0 103 112" fill="none" xmlns="http://www.w3.org/2000/svg">
<path d="M1.16183 0.417301C0.473196 0.465994 -0.0455803 1.06372 0.00311327 1.75235C0.0518068 2.44099 0.649531 2.95977 1.33817 2.91107L1.25 1.66419L1.16183 0.417301ZM86.1843 111.643L98.7793 104.593L86.3765 97.2106L86.1843 111.643ZM1.25 1.66419L1.33817 2.91107C28.1522 1.01506 44.2065 5.87357 53.0264 13.4145C61.7798 20.8987 63.6468 31.2405 61.5902 41.0057C59.5233 50.8199 53.5199 59.8629 46.83 64.4784C43.4919 66.7814 40.0866 67.914 36.9761 67.6284C33.9153 67.3474 30.9364 65.6752 28.4202 61.9438L27.3838 62.6427L26.3474 63.3416C29.2118 67.5892 32.8206 69.7574 36.7475 70.1179C40.6246 70.4739 44.607 69.0494 48.2497 66.5362C55.5214 61.5193 61.852 51.8937 64.0365 41.5209C66.2313 31.0993 64.2669 19.7359 54.651 11.5143C45.1015 3.34961 28.2484 -1.49799 1.16183 0.417301L1.25 1.66419ZM27.3838 62.6427L28.4202 61.9438C26.0279 58.3964 25.8825 55.3473 27.0996 52.7621C28.3628 50.0787 31.2077 47.6486 35.3006 45.707C43.4665 41.8332 55.947 40.221 67.7996 42.03C79.6649 43.841 90.5753 49.0234 95.9644 58.3923C101.319 67.7019 101.465 81.585 90.8362 101.387L91.9376 101.978L93.0389 102.569C103.875 82.3808 104.094 67.511 98.1314 57.1458C92.2033 46.8398 80.4066 41.4253 68.1768 39.5587C55.9344 37.6901 42.932 39.3197 34.2291 43.4482C29.8875 45.5078 26.4515 48.269 24.8377 51.6973C23.1776 55.2237 23.5589 59.2066 26.3474 63.3416L27.3838 62.6427Z" fill="#009559"/>
</svg>
