<svg width="55" height="72" viewBox="0 0 55 72" fill="none" xmlns="http://www.w3.org/2000/svg">
<g clip-path="url(#clip0_1463_343)">
<path fill-rule="evenodd" clip-rule="evenodd" d="M3.32433 51.8636C3.32433 50.8301 3.19647 49.9386 2.94076 49.1891C2.65309 48.4395 2.29019 47.6192 1.88531 47.2672H11.906C18.8209 47.2672 22.5813 54.2404 22.5813 60.0426C22.5813 64.6671 20.6446 71.8122 11.9226 71.9648H1.90194C2.30681 71.5787 2.65309 71.0165 2.94076 70.2783C3.19647 69.5288 3.32433 68.6543 3.32433 67.655V51.8636ZM15.5772 62.7959V62.1859H11.9759L15.2909 60.7788L15.0526 60.2173L11.8021 61.597L14.2991 59.1001L13.8677 58.6688L11.3212 61.2153L12.6703 57.8762L12.1047 57.6477L10.7819 60.9218V57.3906H10.1719V60.9919L8.76479 57.6769L8.2033 57.9152L9.58306 61.1657L7.08614 58.6688L6.65481 59.1001L9.20132 61.6466L5.86221 60.2975L5.63371 60.8631L8.90784 62.1859H5.37661V62.7959H8.97779L5.66286 64.203L5.9012 64.7645L9.15186 63.3847L6.65481 65.8817L7.08613 66.313L9.63252 63.7666L8.2835 67.1056L8.84907 67.3341L10.1719 64.0599V67.5912H10.7819V63.99L12.189 67.3049L12.7505 67.0666L11.3707 63.816L13.8678 66.313L14.2991 65.8817L11.7527 63.3353L15.0916 64.6843L15.3201 64.1187L12.0459 62.7959H15.5772Z" fill="#111111"/>
<path d="M51.5635 60.3081C50.2961 61.599 50.3191 61.7718 47.6386 63.3957C42.3388 66.6064 32.0022 67.9109 31.7108 62.3099C31.4559 57.41 41.2407 59.8045 47.347 58.1991C42.4896 58.1764 27.9488 46.9006 33.8901 40.1232C37.2243 36.3197 50.206 41.1442 54.4158 48.5547L54.3961 34.4386L23.7626 34.4261C22.8792 46.5269 25.955 59.0191 23.6902 65.3448C22.7566 67.9522 20.7337 70.5867 19.2229 71.9648H54.4471L54.4459 56.0692C53.7918 57.5868 52.831 58.9998 51.5635 60.3081Z" fill="#111111"/>
<path d="M23.8702 10.6616C23.8702 8.8614 23.6101 7.32121 23.0901 6.04105C22.55 4.70088 21.9046 3.71748 21.1445 3.0574V36.2041C21.1445 42.45 17.9721 45.573 11.6274 45.573C10.0659 45.573 8.59341 45.4149 7.20983 45.0986C5.78671 44.6638 4.55137 44.1202 3.5038 43.468L1.93244 35.3443C2.48587 35.6606 3.39509 36.1251 4.66008 36.7378C5.70765 37.2517 6.81452 37.7459 7.98068 38.2202C9.10731 38.6748 10.2438 39.0603 11.3902 39.3765C12.5564 39.6928 13.5348 39.8509 14.3254 39.8509C15.9264 39.8509 16.885 39.4358 17.2013 38.6057C17.3199 38.1708 17.2112 37.5976 16.8752 36.8861C16.5194 36.2536 15.9066 35.71 15.037 35.2554C13.8906 34.5438 12.7738 34.1881 11.6867 34.1881V12.4262C11.6867 10.5881 11.4298 9.03646 10.9159 7.77147C10.4258 6.43858 9.81916 5.5139 9.09587 4.99743L0.425469 6.43106L0.183594 5.03845L33.352 0.0351562L33.3513 1.24045C33.3513 9.41905 32.6202 18.7541 33.3513 22.1831C34.0825 25.612 35.3286 26.0726 36.7314 26.0776C38.4437 26.0836 39.8413 23.8265 40.5523 22.1831C43.137 16.2085 42.3471 6.0433 37.8219 3.04067L50.0334 1.24045V23.3532C50.0334 25.2134 50.2935 26.7536 50.8135 27.9738C51.2736 29.2539 53.7039 32.0443 54.504 32.7444L30.771 32.7444C28.6508 32.7444 26.9806 32.1743 25.7604 31.0342C24.5002 29.914 23.8702 27.6638 23.8702 24.2833V10.6616Z" fill="#111111"/>
</g>
<defs>
<clipPath id="clip0_1463_343">
<rect width="54.6353" height="72" fill="white"/>
</clipPath>
</defs>
</svg>
